<svg width="44" height="40" viewBox="0 0 44 40" fill="none" xmlns="http://www.w3.org/2000/svg">
	<path d="M22.1541 17.2971C26.9306 17.2971 30.8027 13.425 30.8027 8.64853C30.8027 3.87208 26.9306 0 22.1541 0C17.3777 0 13.5056 3.87208 13.5056 8.64853C13.5056 13.425 17.3777 17.2971 22.1541 17.2971Z" fill="#00EA75"/>
	<path d="M9.04574 40.0002C13.8222 40.0002 17.6943 36.1281 17.6943 31.3517C17.6943 26.5752 13.8222 22.7031 9.04574 22.7031C4.26929 22.7031 0.397217 26.5752 0.397217 31.3517C0.397217 36.1281 4.26929 40.0002 9.04574 40.0002Z" fill="#00EA75"/>
	<path d="M35.2606 40.0002C40.037 40.0002 43.9091 36.1281 43.9091 31.3517C43.9091 26.5752 40.037 22.7031 35.2606 22.7031C30.4841 22.7031 26.6121 26.5752 26.6121 31.3517C26.6121 36.1281 30.4841 40.0002 35.2606 40.0002Z" fill="#00EA75"/>
</svg>
