<svg width="136" height="36" viewBox="0 0 136 36" fill="none" xmlns="http://www.w3.org/2000/svg">
  <path
    d="M48.0417 9.63117H54.77V13.1301H54.8604C55.5785 11.7841 56.4307 10.7754 57.4167 10.1024C58.4028 9.42944 59.6439 9.09375 61.14 9.09375C61.5273 9.09375 61.9162 9.10989 62.3052 9.13894C62.6941 9.1696 63.0524 9.22932 63.3816 9.31808V15.4637C62.9023 15.3136 62.4327 15.2023 61.9679 15.128C61.5047 15.0538 61.0189 15.0167 60.5106 15.0167C59.2243 15.0167 58.2075 15.1958 57.4603 15.5541C56.7131 15.9124 56.1369 16.4143 55.7335 17.0566C55.33 17.7005 55.0669 18.4704 54.9491 19.3661C54.8297 20.2634 54.77 21.2495 54.77 22.3259V31.4314H48.0417V9.63117Z"
    fill="#1D1D1D" />
  <path
    d="M64.6824 20.5297C64.6824 18.7964 64.9971 17.2261 65.6249 15.8204C66.2527 14.4147 67.1129 13.2124 68.2039 12.2101C69.2948 11.2079 70.5811 10.4381 72.061 9.90069C73.5409 9.36165 75.1177 9.09375 76.7929 9.09375C78.4681 9.09375 80.0449 9.36327 81.5248 9.90069C83.0047 10.4381 84.291 11.2095 85.3819 12.2101C86.4729 13.2124 87.3331 14.4163 87.9609 15.8204C88.5887 17.2261 88.9034 18.7964 88.9034 20.5297C88.9034 22.263 88.5887 23.8349 87.9609 25.239C87.3331 26.6446 86.4729 27.8486 85.3819 28.8492C84.2893 29.8514 83.0047 30.6212 81.5248 31.1587C80.0449 31.6977 78.4665 31.9656 76.7929 31.9656C75.1193 31.9656 73.5409 31.6961 72.061 31.1587C70.5811 30.6212 69.2948 29.8514 68.2039 28.8492C67.1129 27.847 66.2527 26.6446 65.6249 25.239C64.9971 23.8333 64.6824 22.2646 64.6824 20.5297ZM71.4106 20.5297C71.4106 22.1742 71.8819 23.5057 72.8244 24.5224C73.7669 25.5391 75.0903 26.0475 76.7945 26.0475C78.4988 26.0475 79.8221 25.5391 80.7646 24.5224C81.7071 23.5057 82.1784 22.1758 82.1784 20.5297C82.1784 18.8835 81.7071 17.5553 80.7646 16.5369C79.8221 15.5202 78.4988 15.0118 76.7945 15.0118C75.0903 15.0118 73.7669 15.5202 72.8244 16.5369C71.8819 17.5537 71.4106 18.8851 71.4106 20.5297Z"
    fill="#1D1D1D" />
  <path
    d="M92.0425 20.5297C92.0425 18.7964 92.3572 17.2261 92.985 15.8204C93.6128 14.4147 94.473 13.2124 95.564 12.2101C96.6549 11.2079 97.9412 10.4381 99.4211 9.90069C100.901 9.36165 102.478 9.09375 104.153 9.09375C105.828 9.09375 107.405 9.36327 108.885 9.90069C110.365 10.4381 111.651 11.2095 112.742 12.2101C113.833 13.2124 114.693 14.4163 115.321 15.8204C115.949 17.2261 116.264 18.7964 116.264 20.5297C116.264 22.263 115.949 23.8349 115.321 25.239C114.693 26.6446 113.833 27.8486 112.742 28.8492C111.649 29.8514 110.365 30.6212 108.885 31.1587C107.405 31.6977 105.827 31.9656 104.153 31.9656C102.479 31.9656 100.901 31.6961 99.4211 31.1587C97.9412 30.6212 96.6549 29.8514 95.564 28.8492C94.473 27.847 93.6128 26.6446 92.985 25.239C92.3572 23.8333 92.0425 22.2646 92.0425 20.5297ZM98.7707 20.5297C98.7707 22.1742 99.242 23.5057 100.184 24.5224C101.127 25.5391 102.45 26.0475 104.155 26.0475C105.859 26.0475 107.182 25.5391 108.125 24.5224C109.067 23.5057 109.538 22.1758 109.538 20.5297C109.538 18.8835 109.067 17.5553 108.125 16.5369C107.182 15.5202 105.859 15.0118 104.155 15.0118C102.45 15.0118 101.127 15.5202 100.184 16.5369C99.242 17.5537 98.7707 18.8851 98.7707 20.5297Z"
    fill="#1D1D1D" />
  <path
    d="M135.057 15.0129H129.138V22.2785C129.138 22.8773 129.167 23.4228 129.228 23.915C129.288 24.4089 129.422 24.8349 129.631 25.1932C129.84 25.5515 130.162 25.8291 130.596 26.0227C131.029 26.218 131.605 26.3148 132.323 26.3148C132.682 26.3148 133.153 26.2777 133.737 26.2035C134.32 26.1292 134.762 25.9566 135.06 25.687V31.2936C134.313 31.5632 133.535 31.7423 132.728 31.8327C131.921 31.9231 131.129 31.9666 130.351 31.9666C129.215 31.9666 128.168 31.8472 127.211 31.6084C126.254 31.3695 125.416 30.9886 124.699 30.4641C123.981 29.9412 123.421 29.2602 123.018 28.4226C122.614 27.585 122.413 26.5682 122.413 25.3723V15.0113H118.107V9.62899H122.413V3.17188H129.141V9.6306H135.06V15.0129H135.057Z"
    fill="#1D1D1D" />
  <path
    d="M19.0372 15.2038C23.2166 15.2038 26.6046 11.8157 26.6046 7.63631C26.6046 3.45692 23.2166 0.0688477 19.0372 0.0688477C14.8578 0.0688477 11.4697 3.45692 11.4697 7.63631C11.4697 11.8157 14.8578 15.2038 19.0372 15.2038Z"
    fill="#1D1D1D" />
  <path
    d="M7.56746 35.069C11.7469 35.069 15.1349 31.6809 15.1349 27.5015C15.1349 23.3221 11.7469 19.9341 7.56746 19.9341C3.38807 19.9341 0 23.3221 0 27.5015C0 31.6809 3.38807 35.069 7.56746 35.069Z"
    fill="#1D1D1D" />
  <path
    d="M30.5054 35.069C34.6848 35.069 38.0729 31.6809 38.0729 27.5015C38.0729 23.3221 34.6848 19.9341 30.5054 19.9341C26.3261 19.9341 22.938 23.3221 22.938 27.5015C22.938 31.6809 26.3261 35.069 30.5054 35.069Z"
    fill="#1D1D1D" />
</svg>
